<svg width="44" height="44" viewBox="0 0 44 44" fill="none" xmlns="http://www.w3.org/2000/svg">
<path fill-rule="evenodd" clip-rule="evenodd" d="M36.2034 7.84384C32.4401 4.07827 27.4353 2.00229 22.1036 2C11.1133 2 2.17147 10.9372 2.16919 21.923C2.16462 25.4188 3.08143 28.8551 4.82818 31.8845L2 42.2095L12.5674 39.4385C15.4916 41.0298 18.7656 41.8643 22.0945 41.8643H22.1036C33.0894 41.8643 42.0312 32.9248 42.0358 21.939C42.0381 16.6165 39.9666 11.6117 36.2034 7.84384Z" stroke="#1D63FF" stroke-width="2.5" stroke-linecap="round" stroke-linejoin="round"/>
<path d="M24.5229 25.6725L25.4512 24.7511C26.304 23.9052 27.6529 23.7977 28.636 24.4882C29.5872 25.1558 30.4468 25.7548 31.247 26.3127C32.5182 27.1952 32.6714 29.006 31.5763 30.0988L30.7555 30.9196" stroke="#1D63FF" stroke-width="2" stroke-linecap="round" stroke-linejoin="round"/>
<path d="M13.2056 13.3694L14.0264 12.5486C15.1192 11.4558 16.93 11.609 17.8125 12.8779C18.3681 13.6781 18.9671 14.5377 19.637 15.4888C20.3275 16.472 20.2223 17.8209 19.3741 18.6737L18.4527 19.6019" stroke="#1D63FF" stroke-width="2" stroke-linecap="round" stroke-linejoin="round"/>
<path d="M30.7554 30.919C27.3693 34.289 21.6787 31.4265 17.186 26.9316" stroke="#1D63FF" stroke-width="2" stroke-linecap="round" stroke-linejoin="round"/>
<path d="M17.1908 26.9385C12.6982 22.4435 9.83575 16.7552 13.2058 13.3691" stroke="#1D63FF" stroke-width="2.5" stroke-linecap="round" stroke-linejoin="round"/>
<path d="M18.4531 19.6021C19.1825 20.7521 20.1176 21.8907 21.1738 22.9469L21.1784 22.9515C22.2347 24.0078 23.3733 24.9429 24.5233 25.6722" stroke="#1D63FF" stroke-width="2" stroke-linecap="round" stroke-linejoin="round"/>
</svg>
