<svg width="185" height="40" viewBox="0 0 185 40" fill="none" xmlns="http://www.w3.org/2000/svg">
<path d="M184.004 18.5279V15.2996H179.995V10.2811L179.86 10.3227L176.094 11.4746L176.02 11.4972V15.3H170.077V13.182C170.077 12.1958 170.298 11.4406 170.732 10.9371C171.164 10.4397 171.781 10.1868 172.569 10.1868C173.135 10.1868 173.721 10.3202 174.311 10.5835L174.459 10.6491V7.24938L174.39 7.22392C173.839 7.02597 173.09 6.92627 172.163 6.92627C170.993 6.92627 169.931 7.18089 169.005 7.68511C168.077 8.19004 167.348 8.91086 166.837 9.82785C166.328 10.7434 166.07 11.801 166.07 12.9711V15.3H163.278V18.5283H166.07V32.1282H170.077V18.5279H176.02V27.1706C176.02 30.7303 177.699 32.5345 181.01 32.5345C181.554 32.5345 182.127 32.4703 182.712 32.3455C183.307 32.2175 183.713 32.0894 183.951 31.9524L184.004 31.9216V28.6632L183.841 28.7708C183.623 28.9164 183.353 29.0344 183.035 29.1222C182.716 29.2119 182.45 29.2571 182.243 29.2571C181.468 29.2571 180.894 29.048 180.537 28.6356C180.177 28.2196 179.995 27.4916 179.995 26.4731V18.5279H184.004V18.5279ZM154.329 29.2578C152.874 29.2578 151.728 28.7751 150.919 27.8251C150.106 26.8701 149.694 25.5088 149.694 23.7792C149.694 21.995 150.106 20.5982 150.92 19.6264C151.728 18.661 152.864 18.1711 154.296 18.1711C155.686 18.1711 156.792 18.6391 157.584 19.5625C158.38 20.4914 158.784 21.8767 158.784 23.682C158.784 25.5091 158.404 26.9131 157.655 27.852C156.911 28.784 155.792 29.2578 154.329 29.2578V29.2578ZM154.507 14.8944C151.732 14.8944 149.528 15.7074 147.957 17.3111C146.386 18.9152 145.59 21.1344 145.59 23.9086C145.59 26.5434 146.367 28.6628 147.901 30.2067C149.434 31.7516 151.52 32.5341 154.101 32.5341C156.791 32.5341 158.952 31.7093 160.523 30.0837C162.093 28.4591 162.889 26.2608 162.889 23.5514C162.889 20.8754 162.142 18.7402 160.669 17.2064C159.195 15.6722 157.121 14.8944 154.507 14.8944V14.8944ZM139.129 14.8944C137.241 14.8944 135.68 15.3771 134.487 16.3289C133.287 17.2864 132.678 18.5426 132.678 20.0624C132.678 20.8525 132.81 21.5543 133.069 22.1496C133.329 22.7467 133.731 23.2724 134.266 23.7139C134.797 24.1514 135.616 24.6101 136.702 25.0766C137.614 25.4521 138.295 25.7699 138.728 26.0202C139.15 26.2655 139.45 26.5122 139.62 26.7525C139.784 26.9874 139.868 27.309 139.868 27.7064C139.868 28.8371 139.021 29.3869 137.279 29.3869C136.633 29.3869 135.895 29.2524 135.088 28.9863C134.287 28.7241 133.53 28.3403 132.845 27.8484L132.678 27.7293V31.5874L132.739 31.616C133.307 31.8778 134.021 32.098 134.864 32.272C135.705 32.4459 136.469 32.5345 137.133 32.5345C139.181 32.5345 140.831 32.0493 142.034 31.0914C143.245 30.1274 143.86 28.8418 143.86 27.2689C143.86 26.1346 143.529 25.162 142.877 24.3773C142.23 23.5991 141.108 22.8848 139.542 22.2532C138.294 21.7526 137.495 21.337 137.165 21.0178C136.847 20.7094 136.686 20.2737 136.686 19.7218C136.686 19.2322 136.885 18.8403 137.294 18.5225C137.707 18.2034 138.28 18.0409 138.999 18.0409C139.667 18.0409 140.35 18.1464 141.029 18.3529C141.709 18.5598 142.305 18.8367 142.802 19.1752L142.966 19.2871V15.6274L142.903 15.6002C142.444 15.4033 141.839 15.2351 141.103 15.0981C140.371 14.9629 139.707 14.8944 139.129 14.8944V14.8944ZM122.231 29.2574C120.777 29.2574 119.63 28.7751 118.822 27.8251C118.009 26.8701 117.597 25.5091 117.597 23.7792C117.597 21.995 118.009 20.5982 118.823 19.6264C119.631 18.661 120.766 18.1711 122.199 18.1711C123.588 18.1711 124.694 18.6391 125.487 19.5625C126.283 20.4914 126.687 21.8767 126.687 23.682C126.687 25.5091 126.307 26.9131 125.557 27.852C124.813 28.784 123.695 29.2578 122.231 29.2578V29.2574ZM122.41 14.8944C119.635 14.8944 117.43 15.7074 115.86 17.3111C114.289 18.9152 113.493 21.1344 113.493 23.9086C113.493 26.5445 114.27 28.6628 115.803 30.2067C117.336 31.7516 119.423 32.5341 122.004 32.5341C124.694 32.5341 126.854 31.7093 128.425 30.0837C129.996 28.4591 130.792 26.2608 130.792 23.5514C130.792 20.8754 130.045 18.7402 128.571 17.2064C127.096 15.6722 125.024 14.8944 122.41 14.8944H122.41ZM107.409 18.2141V15.2996H103.451V32.1282H107.409V23.5199C107.409 22.056 107.741 20.8536 108.396 19.9452C109.043 19.0476 109.904 18.5932 110.956 18.5932C111.313 18.5932 111.713 18.6516 112.146 18.7682C112.575 18.8837 112.886 19.0092 113.069 19.1412L113.235 19.2617V15.271L113.172 15.2433C112.803 15.0866 112.282 15.0077 111.621 15.0077C110.627 15.0077 109.736 15.3273 108.974 15.9566C108.305 16.5096 107.821 17.2681 107.451 18.2141H107.409H107.409ZM96.3618 14.8944C94.5457 14.8944 92.9259 15.2839 91.5477 16.0513C90.167 16.8205 89.0994 17.9193 88.3732 19.3162C87.6499 20.7098 87.283 22.3372 87.283 24.1525C87.283 25.7422 87.6388 27.2015 88.3424 28.4875C89.0463 29.7756 90.0433 30.7833 91.3046 31.4819C92.5644 32.1802 94.02 32.5345 95.632 32.5345C97.5133 32.5345 99.1196 32.1579 100.407 31.4167L100.459 31.3865V27.7598L100.293 27.8814C99.7005 28.3109 99.048 28.6507 98.3564 28.8898C97.6568 29.1337 97.0188 29.2574 96.4593 29.2574C94.9065 29.2574 93.6596 28.7711 92.7541 27.8133C91.8468 26.8536 91.387 25.5066 91.387 23.8111C91.387 22.1051 91.8669 20.7234 92.8122 19.7035C93.7543 18.6871 95.0034 18.1715 96.525 18.1715C97.826 18.1715 99.0937 18.6118 100.293 19.4822L100.459 19.6027V15.7816L100.406 15.7511C99.9544 15.4987 99.3387 15.29 98.5741 15.1318C97.8135 14.974 97.069 14.8944 96.3614 14.8944H96.3618ZM84.5561 15.2996H80.5977V32.1282H84.5564V15.3L84.5561 15.2996ZM82.6174 8.13087C81.9661 8.13087 81.3981 8.35249 80.9308 8.79216C80.4621 9.23326 80.2243 9.78804 80.2243 10.4429C80.2243 11.0873 80.4592 11.6321 80.9236 12.061C81.3848 12.4888 81.9547 12.7058 82.6174 12.7058C83.2801 12.7058 83.8521 12.4888 84.319 12.0617C84.7888 11.6321 85.0273 11.0873 85.0273 10.4429C85.0273 9.81064 84.7953 9.26123 84.3384 8.80973C83.8819 8.35931 83.3031 8.13087 82.6174 8.13087V8.13087ZM72.7411 14.0581V32.1282H76.7805V8.6462H71.1897L64.0826 26.0876L57.1856 8.6462H51.3667V32.1282H55.163V14.0563H55.2936L62.5764 32.1278H65.4414L72.6102 14.0581H72.7407H72.7411Z" fill="#757385"/>
<path d="M19.0585 19.4213H0.436523V0.799316H19.0585V19.4213Z" fill="#757385"/>
<path d="M39.6192 19.4213H20.9976V0.799316H39.6192V19.4213Z" fill="#757385"/>
<path d="M19.0578 39.989H0.436523V21.3674H19.0578V39.989Z" fill="#757385"/>
<path d="M39.6192 39.989H20.9976V21.3674H39.6192V39.989Z" fill="#757385"/>
</svg>
