<svg width="120" height="40" viewBox="0 0 120 40" fill="none" xmlns="http://www.w3.org/2000/svg">
<path d="M115.749 24.7325L119.068 26.9453C117.991 28.5321 115.414 31.2546 110.96 31.2546C105.428 31.2546 101.308 26.9745 101.308 21.5298C101.308 15.7359 105.471 11.8052 110.494 11.8052C115.545 11.8052 118.02 15.823 118.821 17.9922L119.258 19.0987L106.243 24.485C107.233 26.4359 108.776 27.4258 110.96 27.4258C113.143 27.4258 114.657 26.3485 115.749 24.7325V24.7325ZM105.544 21.2243L114.235 17.6138C113.755 16.4056 112.328 15.5468 110.625 15.5468C108.456 15.5468 105.442 17.4684 105.544 21.2243Z" fill="#757385"/>
<path d="M95.0334 1.89135H99.2259V30.3666H95.0334V1.89111V1.89135Z" fill="#757385"/>
<path d="M88.4244 12.5622H92.4715V29.857C92.4715 37.0339 88.2351 39.9891 83.2271 39.9891C78.5105 39.9891 75.6719 36.8156 74.609 34.2389L78.3212 32.6956C78.9907 34.2824 80.6067 36.1606 83.2271 36.1606C86.4443 36.1606 88.4244 34.166 88.4244 30.4393V29.0419H88.2788C87.3179 30.2063 85.4836 31.2544 83.1544 31.2544C78.292 31.2544 73.8372 27.0181 73.8372 21.5591C73.8372 16.0706 78.292 11.7908 83.1544 11.7908C85.4691 11.7908 87.3179 12.8244 88.2788 13.9599H88.4244V12.5624V12.5622ZM88.7153 21.5591C88.7153 18.1233 86.4298 15.6193 83.5183 15.6193C80.5775 15.6193 78.1027 18.1233 78.1027 21.5591C78.1027 24.9509 80.5775 27.4112 83.5183 27.4112C86.4301 27.4259 88.7156 24.9509 88.7156 21.5591H88.7153Z" fill="#757385"/>
<path d="M50.8213 21.4861C50.8213 27.091 46.454 31.2107 41.0967 31.2107C35.7395 31.2107 31.3721 27.0765 31.3721 21.4861C31.3721 15.8523 35.7395 11.7471 41.0967 11.7471C46.454 11.7471 50.8213 15.8523 50.8213 21.4861ZM46.5704 21.4861C46.5704 17.9925 44.0372 15.5901 41.0967 15.5901C38.1561 15.5901 35.6229 17.9925 35.6229 21.4861C35.6229 24.9509 38.1561 27.3822 41.0967 27.3822C44.0374 27.3822 46.5704 24.9509 46.5704 21.4861Z" fill="#757385"/>
<path d="M72.0612 21.5298C72.0612 27.1346 67.6938 31.2544 62.3367 31.2544C56.9793 31.2544 52.6121 27.1344 52.6121 21.5298C52.6121 15.8959 56.9793 11.8052 62.3367 11.8052C67.6938 11.8052 72.0612 15.8815 72.0612 21.5298V21.5298ZM67.7957 21.5298C67.7957 18.0361 65.2627 15.6337 62.3219 15.6337C59.3814 15.6337 56.8482 18.0361 56.8482 21.5298C56.8482 24.9945 59.3814 27.4258 62.3219 27.4258C65.2772 27.4258 67.7957 24.98 67.7957 21.5298Z" fill="#757385"/>
<path d="M15.3876 26.9891C9.28782 26.9891 4.51304 22.0685 4.51304 15.9687C4.51304 9.8691 9.28782 4.9485 15.3876 4.9485C18.6778 4.9485 21.0796 6.24409 22.8557 7.90376L25.782 4.97772C23.3072 2.60481 20.0026 0.799316 15.3876 0.799316C7.03153 0.79955 0 7.61282 0 15.9687C0 24.325 7.03153 31.138 15.3876 31.138C19.9007 31.138 23.3072 29.6532 25.9713 26.8872C28.708 24.1502 29.5524 20.3069 29.5524 17.1916C29.5524 16.2162 29.436 15.2118 29.3049 14.4693H15.3876V18.5164H25.3015C25.0103 21.0496 24.2097 22.7819 23.0305 23.9609C21.6038 25.4023 19.3475 26.9891 15.3876 26.9891V26.9891Z" fill="#757385"/>
</svg>
