<svg width="169" height="26" viewBox="0 0 169 26" fill="none" xmlns="http://www.w3.org/2000/svg">
<path d="M88.3034 0.920044C93.6106 0.920044 98.2521 3.41367 99.9215 8.0856L94.2717 9.72343C92.8836 7.01283 90.5976 6.30026 88.3034 6.30026C84.4291 6.30026 81.4816 9.36753 81.4816 13.3921C81.4816 17.4174 84.4982 20.5209 88.4786 20.5209C91.606 20.5209 93.8795 18.8831 94.7696 16.2463H87.4827V11.2551H100.595C100.688 11.9759 100.736 12.7021 100.738 13.4287C100.738 20.6642 95.586 25.8684 88.4095 25.8684C81.2326 25.8684 75.5824 20.4023 75.5824 13.3925C75.5824 6.38221 81.1589 0.920434 88.3034 0.920434V0.920044ZM51.5495 6.79586C55.9709 6.79586 58.8977 8.81847 59.6123 11.906L54.4482 12.9335C54.2726 11.8323 53.2233 10.8415 51.4762 10.8415C49.9574 10.8415 49.1941 11.4799 49.0551 12.2252C48.9615 12.7127 49.1941 13.1177 50.8065 13.4537C51.2272 13.5446 51.9882 13.7011 52.7468 13.8553L52.963 13.899C54.0049 14.1105 54.979 14.3052 54.979 14.3052C58.3389 15.0139 59.8776 17.0365 59.8776 19.6612C59.8776 23.5999 56.481 25.6596 51.811 25.6596C47.6386 25.6596 44.0542 24.1322 43.4626 20.48L49.0021 19.3541C49.2471 20.8811 50.6352 21.4505 52.1497 21.4505C53.6642 21.4505 54.8236 20.8074 54.8564 20.0296C54.9095 18.8503 53.987 18.1502 52.6805 17.8962C51.7782 17.7245 49.0715 17.1879 49.0715 17.1879C45.7814 16.5862 43.9075 15.632 43.9075 12.8274C43.9075 9.17476 47.0548 6.79586 51.5495 6.79586V6.79586ZM110.548 6.49304C115.561 6.50084 118.721 9.03154 118.721 13.593V24.9263H113.251V23.6077C111.764 24.8634 109.864 25.5242 107.919 25.4625C103.943 25.4625 101.277 23.1453 101.277 19.6156C101.277 16.0863 103.943 13.8506 108.691 13.8506H113.238V13.4943C113.257 13.1596 113.205 12.8249 113.085 12.5117C112.965 12.1986 112.781 11.9142 112.545 11.677C112.308 11.4402 112.025 11.2562 111.712 11.1368C111.4 11.0174 111.066 10.9654 110.732 10.9843C109.025 10.9843 108.029 11.6598 107.747 13.2282L102.383 12.1226C103.163 8.66667 106.29 6.49265 110.548 6.49265V6.49304ZM69.4712 1.04726V7.03742H74.7293V11.5416H69.5001V17.7651C69.5001 19.616 70.386 20.3652 71.8798 20.3652C72.7875 20.3336 73.6749 20.0893 74.4721 19.653L75.7662 24.1447C74.289 25.0061 72.61 25.461 70.8999 25.4629C66.4586 25.4629 63.7847 23.0391 63.7847 18.3547V11.5618H60.5594V7.0581H63.7847V2.27534L69.4712 1.04726V1.04726ZM128.498 1.04726V7.03742H133.756V11.5416H128.49V17.7651C128.49 19.616 129.38 20.3652 130.87 20.3652C131.779 20.334 132.668 20.0901 133.466 19.653L134.781 24.1447C133.305 25.0048 131.627 25.4595 129.919 25.4629C125.477 25.4629 122.816 23.0391 122.816 18.3344V11.5618H119.583V7.0581H122.816V2.27534L128.498 1.04726V1.04726ZM33.3625 6.5625C38.6576 6.5746 43.136 10.3502 43.136 15.9801C43.136 21.6468 38.6451 25.4262 33.3625 25.4262C27.9616 25.4262 23.4832 21.6468 23.4832 15.9801C23.4832 10.3131 27.9741 6.5625 33.3625 6.5625V6.5625ZM143.77 6.5625C149.065 6.5746 153.54 10.3502 153.54 15.9801C153.54 21.6468 149.049 25.4262 143.77 25.4262C138.369 25.4262 133.891 21.6468 133.891 15.9801C133.891 10.3131 138.381 6.5625 143.77 6.5625V6.5625ZM6.18238 1.04726V10.3502H16.2045V1.04687H22.03V24.9267H16.2045V15.4888H6.18238V24.9263H0.319824V1.04726H6.18238ZM166.791 6.77128C167.223 6.76579 167.655 6.81962 168.073 6.93128L167.824 12.6225H166.791C162.814 12.6225 160.647 14.6697 160.647 19.3252V24.9267H154.96V8.26589L160.647 7.03742V10.4563C161.925 8.31896 163.88 6.77128 166.791 6.77128V6.77128ZM113.251 17.4622H109.34C107.919 17.4622 107.033 18.2115 107.033 19.3171C107.033 20.4226 108.025 21.168 109.519 21.168C111.475 21.1843 113.251 19.8657 113.251 17.8716V17.4622ZM33.3586 11.3492C32.7639 11.356 32.1765 11.4821 31.6314 11.7199C31.0862 11.9577 30.5943 12.3025 30.1848 12.7337C29.7744 13.1659 29.4545 13.6757 29.2438 14.2331C29.0331 14.7906 28.9359 15.3846 28.9579 15.9801C28.9579 18.7973 31.0519 20.615 33.3625 20.615C35.5673 20.615 37.6574 18.7973 37.6574 15.9801C37.6574 13.1997 35.563 11.3492 33.3586 11.3492ZM143.77 11.3492C143.175 11.355 142.587 11.4802 142.041 11.7175C141.494 11.9548 141.002 12.2993 140.591 12.7306C140.18 13.1629 139.859 13.6731 139.648 14.2312C139.437 14.7893 139.34 15.3839 139.362 15.9801C139.362 18.7973 141.46 20.615 143.77 20.615C145.971 20.615 148.069 18.7973 148.069 15.9801C148.069 13.1997 145.971 11.3492 143.77 11.3492V11.3492Z" fill="#757385"/>
</svg>
