<svg width="176" height="39" viewBox="0 0 176 39" fill="none" xmlns="http://www.w3.org/2000/svg">
<rect x="24.3289" y="0.732422" width="18.7144" height="37.4289" rx="0.831162" fill="#1D63FF"/>
<path fill-rule="evenodd" clip-rule="evenodd" d="M15.7646 22.3971H2.94982V35.2119H15.7646V22.3971ZM0 19.4473V38.1617H18.7144V19.4473H0Z" fill="#1D63FF"/>
<path d="M60.8944 16.6459C60.0192 16.6459 59.1751 16.5599 58.3624 16.388C57.5653 16.216 56.8541 15.9425 56.2289 15.5674C55.6037 15.1766 55.1036 14.6765 54.7284 14.0669C54.369 13.4573 54.1892 12.7071 54.1892 11.8162C54.1892 11.7381 54.1892 11.6599 54.1892 11.5818C54.2048 11.5036 54.2127 11.4255 54.2127 11.3473H56.4634C56.4634 11.3942 56.4555 11.4724 56.4399 11.5818C56.4399 11.6755 56.4399 11.7615 56.4399 11.8397C56.4399 12.4648 56.6275 12.9963 57.0026 13.4339C57.3777 13.8715 57.8935 14.1998 58.55 14.4186C59.222 14.6218 59.9801 14.7234 60.8241 14.7234C61.1992 14.7234 61.59 14.6999 61.9963 14.653C62.4184 14.6061 62.8169 14.528 63.192 14.4186C63.5828 14.2935 63.9266 14.1373 64.2236 13.9497C64.5362 13.7465 64.7785 13.5042 64.9504 13.2229C65.138 12.9259 65.2317 12.5664 65.2317 12.1444C65.2317 11.613 65.0754 11.1754 64.7628 10.8315C64.4659 10.472 64.0673 10.1829 63.5672 9.96407C63.067 9.72962 62.4965 9.52643 61.8557 9.3545C61.2305 9.16694 60.5818 8.9872 59.9098 8.81527C59.2377 8.64334 58.5812 8.44796 57.9404 8.22915C57.3152 7.9947 56.7525 7.71336 56.2524 7.38513C55.7522 7.04127 55.3458 6.61926 55.0332 6.11911C54.7363 5.61895 54.5878 5.00938 54.5878 4.29041C54.5878 3.61832 54.7206 3.01657 54.9863 2.48515C55.2677 1.95374 55.6741 1.50829 56.2055 1.1488C56.7525 0.77368 57.4246 0.492341 58.2217 0.304782C59.0189 0.101594 59.9332 0 60.9648 0C61.8088 0 62.5903 0.093779 63.3093 0.281337C64.0439 0.453267 64.6847 0.726791 65.2317 1.10191C65.7944 1.4614 66.2321 1.92248 66.5447 2.48515C66.8573 3.04783 67.0135 3.72773 67.0135 4.52486V4.8062H64.8097V4.45452C64.8097 3.92311 64.6456 3.46984 64.3174 3.09472C63.9892 2.7196 63.5359 2.43045 62.9576 2.22726C62.3949 2.02407 61.7541 1.92248 61.0351 1.92248C60.0973 1.92248 59.3158 2.01626 58.6906 2.20382C58.0654 2.37575 57.5965 2.63364 57.2839 2.9775C56.987 3.30572 56.8385 3.68084 56.8385 4.10285C56.8385 4.58738 56.987 4.99376 57.2839 5.32198C57.5965 5.65021 58.0029 5.92373 58.5031 6.14255C59.0032 6.34574 59.5737 6.5333 60.2145 6.70523C60.8554 6.87716 61.504 7.0569 62.1605 7.24446C62.8325 7.41639 63.4812 7.61958 64.1064 7.85403C64.7472 8.07285 65.3177 8.35418 65.8179 8.69804C66.3336 9.02627 66.74 9.44828 67.037 9.96407C67.334 10.4642 67.4824 11.0816 67.4824 11.8162C67.4824 12.9572 67.2011 13.8872 66.6384 14.6061C66.0758 15.3095 65.3021 15.8253 64.3174 16.1535C63.3327 16.4817 62.1917 16.6459 60.8944 16.6459Z" fill="#2A2739"/>
<path d="M70.7144 16.3645V4.03252H72.3789L72.5665 5.88466H72.7306C73.0432 5.3845 73.3949 4.97812 73.7856 4.66553C74.1764 4.35293 74.6062 4.12629 75.0751 3.98563C75.544 3.82933 76.052 3.75118 76.599 3.75118C77.3961 3.75118 78.0839 3.91529 78.6622 4.24352C79.2405 4.55612 79.6703 5.10316 79.9516 5.88466H80.0923C80.3893 5.3845 80.7331 4.98594 81.1239 4.68897C81.5146 4.37637 81.9523 4.14192 82.4368 3.98563C82.9213 3.82933 83.4371 3.75118 83.9841 3.75118C84.7344 3.75118 85.3908 3.88403 85.9535 4.14974C86.5162 4.39982 86.9538 4.82183 87.2664 5.41576C87.5947 5.99407 87.7588 6.77556 87.7588 7.76025V16.3645H85.6956V8.08848C85.6956 7.58832 85.6331 7.17413 85.5081 6.8459C85.3987 6.51767 85.2345 6.26759 85.0157 6.09566C84.7969 5.9081 84.539 5.77525 84.242 5.6971C83.9607 5.61895 83.6559 5.57988 83.3277 5.57988C82.7806 5.57988 82.2727 5.72055 81.8038 6.00188C81.3505 6.28322 80.9832 6.6896 80.7019 7.22102C80.4205 7.75243 80.2799 8.38545 80.2799 9.12005V16.3645H78.2167V8.08848C78.2167 7.58832 78.1542 7.17413 78.0292 6.8459C77.9041 6.51767 77.74 6.26759 77.5368 6.09566C77.3336 5.9081 77.0835 5.77525 76.7866 5.6971C76.5052 5.61895 76.2083 5.57988 75.8957 5.57988C75.333 5.57988 74.8094 5.72055 74.3249 6.00188C73.856 6.28322 73.4809 6.6896 73.1995 7.22102C72.9182 7.75243 72.7775 8.38545 72.7775 9.12005V16.3645H70.7144Z" fill="#2A2739"/>
<path d="M94.3316 16.6459C93.8783 16.6459 93.425 16.5911 92.9718 16.4817C92.5185 16.3723 92.0965 16.1926 91.7057 15.9425C91.315 15.6924 91.0024 15.3486 90.768 14.9109C90.5335 14.4577 90.4163 13.895 90.4163 13.2229C90.4163 12.3789 90.6195 11.6834 91.0258 11.1363C91.4322 10.5893 91.9949 10.1673 92.7139 9.87029C93.4485 9.55769 94.3159 9.34668 95.3163 9.23727C96.3166 9.11224 97.4029 9.04972 98.5751 9.04972V7.64302C98.5751 7.18976 98.4969 6.79901 98.3406 6.47078C98.1843 6.14255 97.903 5.89247 97.4966 5.72055C97.1059 5.53299 96.5432 5.43921 95.8086 5.43921C95.1053 5.43921 94.5426 5.53299 94.1206 5.72055C93.7142 5.89247 93.425 6.11911 93.2531 6.40045C93.0968 6.68178 93.0187 6.99438 93.0187 7.33824V7.68991H91.0258C91.0102 7.61176 91.0024 7.53361 91.0024 7.45546C91.0024 7.37731 91.0024 7.28354 91.0024 7.17413C91.0024 6.42389 91.2056 5.7987 91.612 5.29854C92.034 4.78275 92.6201 4.39982 93.3703 4.14974C94.1206 3.88403 94.9802 3.75118 95.9493 3.75118C96.9808 3.75118 97.8405 3.89966 98.5282 4.19663C99.2316 4.4936 99.7552 4.91561 100.099 5.46265C100.458 6.0097 100.638 6.66616 100.638 7.43202V14.1138C100.638 14.4108 100.709 14.6218 100.849 14.7468C100.99 14.8562 101.162 14.9109 101.365 14.9109H102.279V16.2707C102.061 16.3645 101.818 16.4427 101.553 16.5052C101.287 16.5833 100.982 16.6224 100.638 16.6224C100.232 16.6224 99.8958 16.5364 99.6301 16.3645C99.3644 16.2082 99.1612 15.9894 99.0205 15.7081C98.8799 15.4111 98.7861 15.0829 98.7392 14.7234H98.5751C98.2938 15.1141 97.9343 15.458 97.4966 15.7549C97.0746 16.0363 96.5979 16.2551 96.0665 16.4114C95.5351 16.5677 94.9568 16.6459 94.3316 16.6459ZM94.8474 14.9109C95.3475 14.9109 95.8164 14.8328 96.2541 14.6765C96.7073 14.5202 97.1059 14.3014 97.4497 14.02C97.7936 13.7231 98.0671 13.3714 98.2703 12.965C98.4735 12.5586 98.5751 12.1132 98.5751 11.6287V10.5971C97.3091 10.5971 96.2306 10.6674 95.3397 10.8081C94.4488 10.9487 93.7611 11.1988 93.2766 11.5583C92.8077 11.9178 92.5732 12.4258 92.5732 13.0822C92.5732 13.5042 92.667 13.8481 92.8545 14.1138C93.0421 14.3795 93.3078 14.5827 93.6517 14.7234C93.9955 14.8484 94.3941 14.9109 94.8474 14.9109Z" fill="#2A2739"/>
<path d="M104.364 16.3645V4.03252H106.029L106.216 6.07222H106.38C106.505 5.68147 106.677 5.31417 106.896 4.97031C107.115 4.61082 107.412 4.32167 107.787 4.10285C108.162 3.8684 108.623 3.75118 109.17 3.75118C109.405 3.75118 109.616 3.77462 109.803 3.82151C110.007 3.85277 110.155 3.89185 110.249 3.93874V5.83777H109.475C108.944 5.83777 108.483 5.93155 108.092 6.11911C107.717 6.29104 107.404 6.54112 107.154 6.86934C106.904 7.19757 106.716 7.58832 106.591 8.04159C106.482 8.49485 106.427 8.97938 106.427 9.49517V16.3645H104.364Z" fill="#2A2739"/>
<path d="M115.384 16.6459C114.743 16.6459 114.243 16.5286 113.883 16.2942C113.524 16.0441 113.266 15.7237 113.11 15.3329C112.954 14.9266 112.875 14.4967 112.875 14.0435V5.76744H111.281V4.03252H112.922L113.297 0.586121H114.939V4.03252H117.26V5.76744H114.939V13.7387C114.939 14.1294 115.009 14.4264 115.15 14.6296C115.29 14.8172 115.556 14.9109 115.947 14.9109H117.26V16.2707C117.103 16.3489 116.916 16.4114 116.697 16.4583C116.478 16.5052 116.251 16.5443 116.017 16.5755C115.798 16.6224 115.587 16.6459 115.384 16.6459Z" fill="#2A2739"/>
<path d="M54.033 37.7348V21.6282H65.9429C66.8026 21.6282 67.5763 21.8001 68.264 22.144C68.9517 22.4722 69.4909 22.9333 69.8817 23.5272C70.2881 24.1212 70.4913 24.8167 70.4913 25.6138C70.4913 26.2547 70.3662 26.8251 70.1161 27.3253C69.8817 27.8255 69.5613 28.2397 69.1549 28.5679C68.7485 28.8961 68.2952 29.1384 67.7951 29.2947V29.3885C68.389 29.5135 68.9204 29.7479 69.3893 30.0918C69.8739 30.4357 70.249 30.8811 70.5147 31.4282C70.796 31.9596 70.9367 32.5926 70.9367 33.3272C70.9367 34.2962 70.7101 35.109 70.2568 35.7655C69.8192 36.4219 69.2252 36.9143 68.475 37.2425C67.7248 37.5707 66.8886 37.7348 65.9664 37.7348H54.033ZM57.9483 34.6635H65.0052C65.5522 34.6635 66.0055 34.5151 66.365 34.2181C66.7244 33.9211 66.9042 33.4522 66.9042 32.8114C66.9042 32.4675 66.826 32.1549 66.6697 31.8736C66.5291 31.5923 66.3103 31.3813 66.0133 31.2406C65.7163 31.0843 65.3334 31.0061 64.8645 31.0061H57.9483V34.6635ZM57.9483 28.0755H64.5831C64.9895 28.0755 65.3334 28.0052 65.6147 27.8645C65.8961 27.7082 66.1071 27.505 66.2477 27.255C66.404 26.9893 66.4822 26.6923 66.4822 26.3641C66.4822 25.8014 66.3181 25.3794 65.9898 25.098C65.6616 24.8011 65.2318 24.6526 64.7004 24.6526H57.9483V28.0755Z" fill="#0D0B1A"/>
<path d="M78.9871 38.0162C77.3459 38.0162 76.0956 37.6176 75.2359 36.8205C74.3919 36.0233 73.9699 34.7886 73.9699 33.1162V25.3794H77.5335V32.5535C77.5335 33.0224 77.596 33.421 77.7211 33.7492C77.8617 34.0774 78.0493 34.3431 78.2837 34.5463C78.5182 34.7495 78.8073 34.898 79.1512 34.9918C79.4951 35.0856 79.8702 35.1324 80.2765 35.1324C80.9017 35.1324 81.4722 35.0074 81.988 34.7573C82.5194 34.4916 82.9414 34.1321 83.254 33.6789C83.5666 33.21 83.7229 32.6707 83.7229 32.0612V25.3794H87.31V37.7348H84.4028L84.1449 35.742H83.9574C83.551 36.2891 83.0743 36.7267 82.5273 37.0549C81.9958 37.3831 81.4253 37.6254 80.8158 37.7817C80.2218 37.938 79.6123 38.0162 78.9871 38.0162Z" fill="#0D0B1A"/>
<path d="M96.8566 38.0162C95.9501 38.0162 95.0905 37.938 94.2777 37.7817C93.4649 37.6254 92.746 37.391 92.1208 37.0784C91.5112 36.7658 91.0267 36.375 90.6672 35.9061C90.3077 35.4216 90.128 34.8589 90.128 34.2181C90.128 34.1399 90.128 34.0774 90.128 34.0305C90.1436 33.968 90.1592 33.9055 90.1749 33.843H93.7854C93.7854 33.8742 93.7776 33.9133 93.7619 33.9602C93.7619 33.9915 93.7619 34.0227 93.7619 34.054C93.7776 34.4291 93.926 34.7339 94.2074 34.9683C94.5043 35.1871 94.8873 35.3513 95.3562 35.4607C95.8407 35.5544 96.3487 35.6013 96.8801 35.6013C97.3959 35.6013 97.896 35.5701 98.3806 35.5076C98.8651 35.4294 99.2636 35.3044 99.5762 35.1324C99.8888 34.9449 100.045 34.6792 100.045 34.3353C100.045 33.9446 99.8576 33.6632 99.4825 33.4913C99.1073 33.3194 98.5837 33.1865 97.9117 33.0927C97.2396 32.9833 96.4659 32.8583 95.5906 32.7176C94.9029 32.6082 94.2543 32.4675 93.6447 32.2956C93.0351 32.1237 92.4959 31.9049 92.027 31.6392C91.5581 31.3578 91.1908 31.0061 90.9251 30.5841C90.6594 30.1465 90.5265 29.6073 90.5265 28.9664C90.5265 28.2787 90.6828 27.6926 90.9954 27.2081C91.3237 26.7079 91.7769 26.3094 92.3552 26.0124C92.9335 25.6998 93.6212 25.4732 94.4184 25.3325C95.2155 25.1762 96.0908 25.098 97.0442 25.098C97.9038 25.098 98.701 25.1762 99.4356 25.3325C100.186 25.4732 100.842 25.692 101.405 25.9889C101.983 26.2703 102.429 26.6298 102.741 27.0674C103.07 27.505 103.234 28.013 103.234 28.5913C103.234 28.6538 103.234 28.7242 103.234 28.8023C103.234 28.8648 103.226 28.9196 103.21 28.9664H99.6231V28.8258C99.6231 28.5288 99.4981 28.2865 99.248 28.099C99.0136 27.8958 98.6932 27.7473 98.2868 27.6535C97.896 27.5598 97.4662 27.5129 96.9973 27.5129C96.7785 27.5129 96.505 27.5285 96.1767 27.5598C95.8641 27.5754 95.5437 27.6223 95.2155 27.7004C94.9029 27.7786 94.6372 27.888 94.4184 28.0286C94.1996 28.1537 94.0901 28.3412 94.0901 28.5913C94.0901 28.9039 94.2621 29.1384 94.6059 29.2947C94.9654 29.451 95.4265 29.576 95.9892 29.6698C96.5675 29.7479 97.1927 29.8417 97.8648 29.9511C98.5837 30.0605 99.2871 30.1856 99.9748 30.3262C100.678 30.4669 101.296 30.6701 101.827 30.9358C102.374 31.2015 102.812 31.5688 103.14 32.0377C103.468 32.5066 103.632 33.124 103.632 33.8899C103.632 34.6557 103.468 35.3044 103.14 35.8358C102.812 36.3672 102.351 36.797 101.757 37.1253C101.163 37.4379 100.452 37.6645 99.6231 37.8052C98.7947 37.9458 97.8726 38.0162 96.8566 38.0162Z" fill="#0D0B1A"/>
<path d="M106.477 23.5038V20.7607H110.064V23.5038H106.477ZM106.477 37.7348V25.3794H110.064V37.7348H106.477Z" fill="#0D0B1A"/>
<path d="M113.559 37.7348V25.3794H116.467L116.725 27.3722H116.936C117.342 26.8251 117.811 26.3875 118.342 26.0593C118.874 25.7311 119.444 25.4888 120.054 25.3325C120.679 25.1762 121.296 25.098 121.906 25.098C123 25.098 123.914 25.2778 124.649 25.6373C125.399 25.9811 125.962 26.5125 126.337 27.2315C126.712 27.9505 126.9 28.8727 126.9 29.998V37.7348H123.336V30.5607C123.336 30.0918 123.273 29.6932 123.148 29.365C123.023 29.0368 122.836 28.7711 122.586 28.5679C122.351 28.3647 122.062 28.2162 121.718 28.1224C121.39 28.0286 121.015 27.9818 120.593 27.9818C119.968 27.9818 119.389 28.1146 118.858 28.3803C118.342 28.6304 117.928 28.9899 117.615 29.4588C117.303 29.9121 117.147 30.4435 117.147 31.053V37.7348H113.559Z" fill="#0D0B1A"/>
<path d="M137.383 38.0162C135.82 38.0162 134.476 37.7895 133.351 37.3363C132.226 36.8674 131.358 36.1562 130.749 35.2028C130.139 34.2494 129.834 33.038 129.834 31.5688C129.834 30.1152 130.131 28.9117 130.725 27.9583C131.319 26.9893 132.171 26.2703 133.281 25.8014C134.39 25.3325 135.711 25.098 137.243 25.098C138.821 25.098 140.15 25.3325 141.228 25.8014C142.323 26.2703 143.143 26.9658 143.69 27.888C144.253 28.8101 144.534 29.9589 144.534 31.3344V32.3659H133.562C133.593 33.0849 133.765 33.6789 134.078 34.1478C134.39 34.601 134.828 34.9371 135.391 35.1559C135.969 35.3591 136.649 35.4607 137.43 35.4607C137.805 35.4607 138.188 35.4216 138.579 35.3434C138.97 35.2497 139.329 35.1246 139.658 34.9683C139.986 34.7964 140.259 34.5854 140.478 34.3353C140.697 34.0696 140.822 33.7648 140.853 33.421H144.464C144.464 34.1087 144.3 34.7339 143.971 35.2966C143.643 35.8592 143.167 36.3438 142.541 36.7501C141.916 37.1565 141.166 37.4691 140.291 37.6879C139.431 37.9068 138.462 38.0162 137.383 38.0162ZM133.562 30.1856H140.76C140.76 29.7636 140.674 29.3963 140.502 29.0837C140.33 28.7554 140.087 28.4897 139.775 28.2865C139.462 28.0834 139.095 27.9271 138.673 27.8176C138.267 27.7082 137.821 27.6535 137.337 27.6535C136.602 27.6535 135.961 27.7551 135.414 27.9583C134.883 28.1459 134.461 28.435 134.148 28.8258C133.835 29.2009 133.64 29.6542 133.562 30.1856Z" fill="#0D0B1A"/>
<path d="M153.556 38.0162C152.649 38.0162 151.789 37.938 150.977 37.7817C150.164 37.6254 149.445 37.391 148.82 37.0784C148.21 36.7658 147.726 36.375 147.366 35.9061C147.007 35.4216 146.827 34.8589 146.827 34.2181C146.827 34.1399 146.827 34.0774 146.827 34.0305C146.843 33.968 146.858 33.9055 146.874 33.843H150.484C150.484 33.8742 150.477 33.9133 150.461 33.9602C150.461 33.9915 150.461 34.0227 150.461 34.054C150.477 34.4291 150.625 34.7339 150.906 34.9683C151.203 35.1871 151.586 35.3513 152.055 35.4607C152.54 35.5544 153.048 35.6013 153.579 35.6013C154.095 35.6013 154.595 35.5701 155.08 35.5076C155.564 35.4294 155.963 35.3044 156.275 35.1324C156.588 34.9449 156.744 34.6792 156.744 34.3353C156.744 33.9446 156.557 33.6632 156.181 33.4913C155.806 33.3194 155.283 33.1865 154.611 33.0927C153.939 32.9833 153.165 32.8583 152.29 32.7176C151.602 32.6082 150.953 32.4675 150.344 32.2956C149.734 32.1237 149.195 31.9049 148.726 31.6392C148.257 31.3578 147.89 31.0061 147.624 30.5841C147.358 30.1465 147.226 29.6073 147.226 28.9664C147.226 28.2787 147.382 27.6926 147.694 27.2081C148.023 26.7079 148.476 26.3094 149.054 26.0124C149.633 25.6998 150.32 25.4732 151.117 25.3325C151.915 25.1762 152.79 25.098 153.743 25.098C154.603 25.098 155.4 25.1762 156.135 25.3325C156.885 25.4732 157.541 25.692 158.104 25.9889C158.682 26.2703 159.128 26.6298 159.44 27.0674C159.769 27.505 159.933 28.013 159.933 28.5913C159.933 28.6538 159.933 28.7242 159.933 28.8023C159.933 28.8648 159.925 28.9196 159.909 28.9664H156.322V28.8258C156.322 28.5288 156.197 28.2865 155.947 28.099C155.713 27.8958 155.392 27.7473 154.986 27.6535C154.595 27.5598 154.165 27.5129 153.696 27.5129C153.477 27.5129 153.204 27.5285 152.876 27.5598C152.563 27.5754 152.243 27.6223 151.915 27.7004C151.602 27.7786 151.336 27.888 151.117 28.0286C150.899 28.1537 150.789 28.3412 150.789 28.5913C150.789 28.9039 150.961 29.1384 151.305 29.2947C151.664 29.451 152.126 29.576 152.688 29.6698C153.266 29.7479 153.892 29.8417 154.564 29.9511C155.283 30.0605 155.986 30.1856 156.674 30.3262C157.377 30.4669 157.995 30.6701 158.526 30.9358C159.073 31.2015 159.511 31.5688 159.839 32.0377C160.167 32.5066 160.331 33.124 160.331 33.8899C160.331 34.6557 160.167 35.3044 159.839 35.8358C159.511 36.3672 159.05 36.797 158.456 37.1253C157.862 37.4379 157.151 37.6645 156.322 37.8052C155.494 37.9458 154.572 38.0162 153.556 38.0162Z" fill="#0D0B1A"/>
<path d="M169.224 38.0162C168.318 38.0162 167.458 37.938 166.645 37.7817C165.833 37.6254 165.114 37.391 164.488 37.0784C163.879 36.7658 163.394 36.375 163.035 35.9061C162.675 35.4216 162.496 34.8589 162.496 34.2181C162.496 34.1399 162.496 34.0774 162.496 34.0305C162.511 33.968 162.527 33.9055 162.543 33.843H166.153C166.153 33.8742 166.145 33.9133 166.13 33.9602C166.13 33.9915 166.13 34.0227 166.13 34.054C166.145 34.4291 166.294 34.7339 166.575 34.9683C166.872 35.1871 167.255 35.3513 167.724 35.4607C168.208 35.5544 168.716 35.6013 169.248 35.6013C169.764 35.6013 170.264 35.5701 170.748 35.5076C171.233 35.4294 171.631 35.3044 171.944 35.1324C172.257 34.9449 172.413 34.6792 172.413 34.3353C172.413 33.9446 172.225 33.6632 171.85 33.4913C171.475 33.3194 170.951 33.1865 170.279 33.0927C169.607 32.9833 168.834 32.8583 167.958 32.7176C167.271 32.6082 166.622 32.4675 166.012 32.2956C165.403 32.1237 164.864 31.9049 164.395 31.6392C163.926 31.3578 163.558 31.0061 163.293 30.5841C163.027 30.1465 162.894 29.6073 162.894 28.9664C162.894 28.2787 163.051 27.6926 163.363 27.2081C163.691 26.7079 164.145 26.3094 164.723 26.0124C165.301 25.6998 165.989 25.4732 166.786 25.3325C167.583 25.1762 168.458 25.098 169.412 25.098C170.272 25.098 171.069 25.1762 171.803 25.3325C172.553 25.4732 173.21 25.692 173.773 25.9889C174.351 26.2703 174.796 26.6298 175.109 27.0674C175.437 27.505 175.601 28.013 175.601 28.5913C175.601 28.6538 175.601 28.7242 175.601 28.8023C175.601 28.8648 175.594 28.9196 175.578 28.9664H171.991V28.8258C171.991 28.5288 171.866 28.2865 171.616 28.099C171.381 27.8958 171.061 27.7473 170.654 27.6535C170.264 27.5598 169.834 27.5129 169.365 27.5129C169.146 27.5129 168.873 27.5285 168.544 27.5598C168.232 27.5754 167.911 27.6223 167.583 27.7004C167.271 27.7786 167.005 27.888 166.786 28.0286C166.567 28.1537 166.458 28.3412 166.458 28.5913C166.458 28.9039 166.63 29.1384 166.974 29.2947C167.333 29.451 167.794 29.576 168.357 29.6698C168.935 29.7479 169.56 29.8417 170.232 29.9511C170.951 30.0605 171.655 30.1856 172.342 30.3262C173.046 30.4669 173.663 30.6701 174.195 30.9358C174.742 31.2015 175.179 31.5688 175.508 32.0377C175.836 32.5066 176 33.124 176 33.8899C176 34.6557 175.836 35.3044 175.508 35.8358C175.179 36.3672 174.718 36.797 174.124 37.1253C173.53 37.4379 172.819 37.6645 171.991 37.8052C171.162 37.9458 170.24 38.0162 169.224 38.0162Z" fill="#0D0B1A"/>
</svg>
