<svg width="14" height="23" viewBox="0 0 14 23" fill="none" xmlns="http://www.w3.org/2000/svg">
<path fill-rule="evenodd" clip-rule="evenodd" d="M0.582686 14.832C0.167752 15.247 0.167749 15.9197 0.582679 16.3346L6.24929 22.0013C6.44855 22.2006 6.7188 22.3125 7.00059 22.3125C7.28239 22.3125 7.55264 22.2006 7.7519 22.0013L13.4186 16.3346C13.8335 15.9197 13.8336 15.247 13.4186 14.832C13.0037 14.4171 12.331 14.4171 11.916 14.832L8.0631 18.6849L8.0631 1.41667C8.0631 0.82987 7.5874 0.354172 7.0006 0.354172C6.4138 0.354172 5.9381 0.829869 5.9381 1.41667L5.9381 18.6849L2.08529 14.832C1.67036 14.4171 0.99762 14.4171 0.582686 14.832Z" fill="#1D63FF"/>
</svg>
